<svg width="24" height="24" viewBox="0 0 24 24" fill="none" xmlns="http://www.w3.org/2000/svg">
<path fill-rule="evenodd" clip-rule="evenodd" d="M17.3638 12.5437L13.1075 16.7812C12.925 16.9637 12.685 17.055 12.4462 17.055C12.2063 17.055 11.965 16.9625 11.7825 16.7788C11.4162 16.4125 11.4175 15.8187 11.785 15.4537L14.4325 12.8175H7.04625C6.52875 12.8175 6.10875 12.3975 6.10875 11.88C6.10875 11.3625 6.52875 10.9425 7.04625 10.9425H14.4338L11.7838 8.3C11.4175 7.93375 11.4162 7.34 11.7825 6.97375C12.1475 6.6075 12.7413 6.60625 13.1088 6.97125L17.3638 11.2162C17.405 11.2562 17.425 11.3087 17.4575 11.355C17.495 11.4087 17.54 11.4563 17.5662 11.5163C17.6137 11.6313 17.64 11.7537 17.64 11.88C17.64 12.0062 17.6137 12.1287 17.5662 12.2425C17.5275 12.3337 17.4675 12.4113 17.4038 12.485C17.3875 12.5025 17.3813 12.5262 17.3638 12.5437ZM17.1462 0H6.6025C2.6525 0 0 2.77625 0 6.9075V16.8425C0 20.9738 2.6525 23.75 6.6025 23.75H17.145C21.095 23.75 23.75 20.9738 23.75 16.8425V6.9075C23.75 2.77625 21.0962 0 17.1462 0Z" fill="#1E293B"/>
</svg>
