<svg width="24" height="24" viewBox="0 0 24 24" fill="none" xmlns="http://www.w3.org/2000/svg">
<path fill-rule="evenodd" clip-rule="evenodd" d="M3.87436 7.00366L15.8744 7.00366C16.4274 7.00366 16.8744 6.55666 16.8744 6.00366C16.8744 5.45066 16.4274 5.00366 15.8744 5.00366L3.87436 5.00366C3.32136 5.00366 2.87436 5.45066 2.87436 6.00366C2.87436 6.55666 3.32136 7.00366 3.87436 7.00366Z" fill="#1E293B"/>
<path fill-rule="evenodd" clip-rule="evenodd" d="M3.87436 13.0037L15.8744 13.0037C16.4274 13.0037 16.8744 12.5567 16.8744 12.0037C16.8744 11.4507 16.4274 11.0037 15.8744 11.0037L3.87436 11.0037C3.32136 11.0037 2.87436 11.4507 2.87436 12.0037C2.87436 12.5567 3.32136 13.0037 3.87436 13.0037Z" fill="#1E293B"/>
<path fill-rule="evenodd" clip-rule="evenodd" d="M15.8744 17.0037L3.87436 17.0037C3.32136 17.0037 2.87436 17.4507 2.87436 18.0037C2.87436 18.5567 3.32136 19.0037 3.87436 19.0037L15.8744 19.0037C16.4274 19.0037 16.8744 18.5567 16.8744 18.0037C16.8744 17.4507 16.4274 17.0037 15.8744 17.0037Z" fill="#1E293B"/>
<path fill-rule="evenodd" clip-rule="evenodd" d="M19.8647 19.2634C20.5597 19.2634 21.1257 18.6944 21.1257 17.9934C21.1257 17.2994 20.5597 16.7344 19.8647 16.7344C19.1697 16.7344 18.6027 17.2994 18.6027 17.9934C18.6027 18.6944 19.1697 19.2634 19.8647 19.2634Z" fill="#1E293B"/>
<path fill-rule="evenodd" clip-rule="evenodd" d="M19.8647 13.1228C20.5597 13.1228 21.1257 12.5578 21.1257 11.8628C21.1257 11.1688 20.5597 10.6028 19.8647 10.6028C19.1697 10.6028 18.6027 11.1688 18.6027 11.8628C18.6027 12.5578 19.1697 13.1228 19.8647 13.1228Z" fill="#1E293B"/>
<path fill-rule="evenodd" clip-rule="evenodd" d="M19.8647 7.26343C20.5597 7.26343 21.1257 6.69443 21.1257 5.99343C21.1257 5.29943 20.5597 4.73443 19.8647 4.73443C19.1697 4.73443 18.6027 5.29943 18.6027 5.99343C18.6027 6.69443 19.1697 7.26343 19.8647 7.26343Z" fill="#1E293B"/>
</svg>
