<svg width="7" height="7" viewBox="0 0 7 7" fill="none" xmlns="http://www.w3.org/2000/svg">
<path fill-rule="evenodd" clip-rule="evenodd" d="M4.20712 3.5001L6.85362 0.853625C7.04912 0.658125 7.04912 0.342125 6.85362 0.146625C6.65812 -0.048875 6.34212 -0.048875 6.14662 0.146625L3.50012 2.7931L0.853625 0.146625C0.658125 -0.048875 0.342125 -0.048875 0.146625 0.146625C-0.048875 0.342125 -0.048875 0.658125 0.146625 0.853625L2.79312 3.5001L0.146625 6.14665C-0.048875 6.3421 -0.048875 6.6581 0.146625 6.8536C0.244125 6.9511 0.372125 7.0001 0.500125 7.0001C0.628125 7.0001 0.756125 6.9511 0.853625 6.8536L3.50012 4.20715L6.14662 6.8536C6.24412 6.9511 6.37212 7.0001 6.50012 7.0001C6.62812 7.0001 6.75612 6.9511 6.85362 6.8536C7.04912 6.6581 7.04912 6.3421 6.85362 6.14665L4.20712 3.5001Z" fill="#475569"/>
</svg>
