<svg width="18" height="18" viewBox="0 0 18 18" fill="none" xmlns="http://www.w3.org/2000/svg">
<path fill-rule="evenodd" clip-rule="evenodd" d="M15.6813 9.2379C14.4468 6.56119 11.8863 4.89844 9.0003 4.89844C6.11357 4.89844 3.55308 6.56119 2.31933 9.2379C2.14533 9.6144 2.31033 10.0599 2.68608 10.2332C3.06333 10.4072 3.50808 10.2407 3.68133 9.86648C4.66758 7.72673 6.70533 6.39844 9.0003 6.39844C11.2946 6.39844 13.3323 7.72673 14.3193 9.86648C14.4461 10.141 14.7168 10.3022 15.0011 10.3022C15.1053 10.3022 15.2126 10.2805 15.3146 10.2332C15.6903 10.0599 15.8546 9.6144 15.6813 9.2379Z" fill="#475569"/>
<path fill-rule="evenodd" clip-rule="evenodd" d="M9.00234 8.12695C7.63284 8.12695 6.51831 9.23995 6.51831 10.6095C6.51831 11.9827 7.63284 13.0995 9.00234 13.0995C10.3726 13.0995 11.4871 11.9827 11.4871 10.6095C11.4871 9.23995 10.3726 8.12695 9.00234 8.12695Z" fill="#475569"/>
</svg>
