<svg width="18" height="18" viewBox="0 0 18 18" fill="none" xmlns="http://www.w3.org/2000/svg">
<path fill-rule="evenodd" clip-rule="evenodd" d="M9 7.125C10.0357 7.125 10.875 7.96432 10.875 9C10.875 10.0357 10.0357 10.875 9 10.875C7.96432 10.875 7.125 10.0357 7.125 9C7.125 7.96432 7.96432 7.125 9 7.125Z" stroke="#2563EB" stroke-width="1.5" stroke-linecap="round" stroke-linejoin="round"/>
<path fill-rule="evenodd" clip-rule="evenodd" d="M15.126 5.43769C14.6134 4.54349 13.4784 4.23753 12.5914 4.75389C11.8198 5.2021 10.8556 4.64128 10.8556 3.74413C10.8556 2.71214 10.0244 1.875 8.99985 1.875C7.97527 1.875 7.14409 2.71214 7.14409 3.74413C7.14409 4.64128 6.17983 5.2021 5.40899 4.75389C4.52122 4.23753 3.3863 4.54349 2.87365 5.43769C2.36172 6.33187 2.66549 7.47499 3.55327 7.99058C4.32409 8.43953 4.32409 9.56047 3.55327 10.0094C2.66549 10.5257 2.36172 11.6689 2.87365 12.5623C3.3863 13.4565 4.52122 13.7625 5.40826 13.2469C6.17909 12.7979 7.14409 13.3587 7.14409 14.2558C7.14409 15.2878 7.97527 16.125 8.99985 16.125C10.0244 16.125 10.8556 15.2878 10.8556 14.2558C10.8556 13.3587 11.8198 12.7979 12.5914 13.2469C13.4784 13.7625 14.6134 13.4565 15.126 12.5623C15.6386 11.6689 15.3341 10.5257 14.4471 10.0094C13.6763 9.56047 13.6756 8.43953 14.4471 7.99058C15.3341 7.47499 15.6386 6.33187 15.126 5.43769Z" stroke="#2563EB" stroke-width="1.5" stroke-linecap="round" stroke-linejoin="round"/>
</svg>
