<svg width="24" height="25" viewBox="0 0 24 25" fill="none" xmlns="http://www.w3.org/2000/svg">
<path fill-rule="evenodd" clip-rule="evenodd" d="M12.2002 13.2437C14.8002 13.2437 16.9002 11.1437 16.9002 8.54375C17.0002 5.94375 14.9002 3.84375 12.2002 3.84375C9.60024 3.84375 7.50024 5.94375 7.50024 8.54375C7.50024 11.1437 9.60024 13.2437 12.2002 13.2437Z" fill="white"/>
<path fill-rule="evenodd" clip-rule="evenodd" d="M19.1003 19.5453C18.8003 18.4453 18.2003 17.4453 17.0003 16.6453C16.0003 15.9453 14.4003 15.4453 12.2003 15.4453C7.90034 15.4453 5.80034 17.4453 5.20034 19.5453C5.00034 20.1453 5.30034 20.7453 5.80034 21.0453C7.60034 22.2453 9.80034 22.8453 12.2003 22.8453C14.5003 22.8453 16.7003 22.1453 18.5003 21.0453C19.0003 20.7453 19.3003 20.1453 19.1003 19.5453Z" fill="white"/>
</svg>
